<svg width="256" height="256" viewBox="0 0 256 256" fill="none" xmlns="http://www.w3.org/2000/svg">
  <rect width="256" height="256" rx="56" fill="#2563EB"/>
  <path d="M128 50C92.6538 50 64 78.6538 64 114C64 140.295 79.8648 162.886 102.556 172.812V197.333C102.556 200.463 105.093 203 108.222 203H147.778C150.907 203 153.444 200.463 153.444 197.333V172.812C176.135 162.886 192 140.295 192 114C192 78.6538 163.346 50 128 50Z" fill="white"/>
  <path d="M128 78C129.657 78 131 79.3431 131 81V88.25C138.521 89.1367 144.25 95.5423 144.25 103.25C144.25 104.907 142.907 106.25 141.25 106.25C139.593 106.25 138.25 104.907 138.25 103.25C138.25 98.9708 134.779 95.5 130.5 95.5H124.75C120.471 95.5 117 98.9708 117 103.25C117 107.529 120.471 111 124.75 111H131.25C138.843 111 145 117.157 145 124.75C145 132.458 139.271 138.863 131.75 139.75V147C131.75 148.657 130.407 150 128.75 150C127.093 150 125.75 148.657 125.75 147V139.75C118.229 138.863 112.5 132.458 112.5 124.75C112.5 123.093 113.843 121.75 115.5 121.75C117.157 121.75 118.5 123.093 118.5 124.75C118.5 129.029 121.971 132.5 126.25 132.5H131.25C135.529 132.5 139 129.029 139 124.75C139 120.471 135.529 117 131.25 117H124.75C117.157 117 111 110.843 111 103.25C111 95.5423 116.729 89.1367 124.25 88.25V81C124.25 79.3431 125.593 78 127.25 78H128Z" fill="#2563EB"/>
</svg>
