<svg width="36" height="36" viewBox="0 0 36 36" fill="none" xmlns="http://www.w3.org/2000/svg">
<rect width="36" height="36" rx="5" fill="#2563EB"/>
<path fill-rule="evenodd" clip-rule="evenodd" d="M25.6364 17.4884C29.7032 17.4884 33 20.7369 33 24.7442C33 28.7515 29.7032 32 25.6364 32C21.5695 32 18.2727 28.7515 18.2727 24.7442C18.2727 20.7369 21.5695 17.4884 25.6364 17.4884ZM25.4462 19C25.2768 19 25.1394 19.1354 25.1394 19.3023V20.3046C24.8866 20.3534 24.6417 20.427 24.4051 20.5266C23.9426 20.7231 23.5649 21.0053 23.2769 21.3745C22.9899 21.7439 22.8479 22.1815 22.8478 22.6814C22.8479 23.1754 22.9543 23.5973 23.173 23.9411C23.387 24.2775 23.6648 24.5581 24.0056 24.782L24.0064 24.7828C24.3457 25.0026 24.7099 25.1904 25.0978 25.3441H25.0994C25.4788 25.4902 25.7933 25.6291 26.0431 25.7606L26.0447 25.7614C26.2918 25.8874 26.47 26.0185 26.5856 26.1519C26.6976 26.2812 26.7525 26.4249 26.7526 26.5857C26.7526 26.8048 26.6666 26.9791 26.4905 27.1156C26.3142 27.2476 26.0371 27.3226 25.6436 27.3226C25.4116 27.3226 25.173 27.2909 24.9308 27.2281C24.7502 27.1804 24.5765 27.1261 24.4107 27.0644L24.2469 26.9998C24.0306 26.906 23.8475 26.8155 23.698 26.7313C23.6582 26.7083 23.6219 26.6871 23.5893 26.6676C23.4404 26.5784 23.2343 26.6179 23.1411 26.7723L22.5866 27.6919C22.3792 28.036 22.466 28.4615 22.8343 28.6595C23.1327 28.8198 23.5207 28.9675 23.9944 29.1027L24.2844 29.1744C24.5528 29.2322 24.838 29.2687 25.1394 29.2885V30.186C25.1394 30.353 25.2768 30.4883 25.4462 30.4884H26.1701C26.3394 30.4882 26.4769 30.3529 26.4769 30.186V29.2318C26.6103 29.2091 26.7429 29.1824 26.874 29.1476C27.2788 29.0456 27.6406 28.888 27.9583 28.6736L27.9591 28.6744C28.2837 28.4582 28.5406 28.1836 28.7285 27.854C28.9182 27.5168 29.0113 27.1232 29.0114 26.677C29.0113 26.3024 28.9454 25.9637 28.8116 25.6638C28.7124 25.4414 28.5863 25.2385 28.4329 25.056L28.2707 24.8804C28.0488 24.6532 27.7906 24.4572 27.498 24.2931C27.2077 24.1303 26.896 23.9896 26.5664 23.8711C26.2143 23.7383 25.9253 23.6167 25.6971 23.5065C25.4766 23.3937 25.3182 23.2802 25.2153 23.168C25.1438 23.0835 25.0993 22.9938 25.0819 22.8972L25.0739 22.798C25.0739 22.6011 25.1573 22.46 25.3319 22.361L25.3327 22.3602C25.5231 22.2509 25.7784 22.1917 26.1046 22.1917C26.3434 22.1918 26.5716 22.2288 26.7885 22.3028L26.7893 22.3035C27.0165 22.3796 27.2096 22.4654 27.3686 22.5602L27.3694 22.561C27.6117 22.7017 27.9429 22.6346 28.0917 22.3894L28.8635 21.1147L28.7964 21.0596C28.7628 21.0321 28.7058 20.9961 28.6318 20.9533C28.5557 20.9093 28.4552 20.8544 28.3322 20.7895C28.078 20.6555 27.7449 20.5294 27.3374 20.4116C27.0764 20.3362 26.7891 20.2871 26.4769 20.2597V19.3023C26.4769 19.1355 26.3394 19.0002 26.1701 19H25.4462Z" fill="white"/>
<path d="M21.1364 8.64063V10.031C21.1364 11.3668 22.2353 12.4496 23.5909 12.4496H24.4091C25.7647 12.4496 26.8636 11.3668 26.8636 10.031V8.64141C27.1249 8.66709 27.379 8.71613 27.6235 8.78785C27.6304 8.78987 27.6374 8.79131 27.6443 8.79336C27.6849 8.80551 27.7248 8.81938 27.7649 8.83273C27.7851 8.83946 27.8056 8.84538 27.8256 8.85241L27.8608 8.86501C27.9541 8.89867 28.0457 8.93598 28.1357 8.97602C28.1586 8.98622 28.1817 8.99612 28.2044 9.00672C28.2304 9.0189 28.2561 9.03181 28.2819 9.04451C28.3162 9.06144 28.3504 9.07864 28.3841 9.09648C28.4159 9.11325 28.4472 9.13086 28.4784 9.14844C28.4969 9.15882 28.5153 9.16928 28.5336 9.17993C28.5771 9.20532 28.6205 9.23095 28.663 9.25787C28.6739 9.26476 28.6849 9.27136 28.6958 9.27834C28.7355 9.30404 28.7744 9.33085 28.8132 9.35786C28.8307 9.37002 28.8479 9.38245 28.8651 9.39486C28.8922 9.41432 28.9185 9.43461 28.945 9.4547C28.9711 9.47442 28.997 9.49422 29.0225 9.51454C29.0541 9.53961 29.0853 9.56494 29.116 9.5909C29.1297 9.60241 29.1433 9.61386 29.1568 9.62555C29.1871 9.65183 29.2168 9.67871 29.2463 9.70585C29.2713 9.72892 29.2961 9.75225 29.3206 9.77592C29.3407 9.79543 29.3608 9.81505 29.3805 9.83497C29.3993 9.85396 29.418 9.87309 29.4364 9.89244C29.4688 9.92644 29.5003 9.96127 29.5315 9.99637C29.5397 10.0056 29.5482 10.0146 29.5563 10.0239C29.5875 10.0597 29.6182 10.0958 29.6482 10.1326C29.6634 10.1512 29.6781 10.1703 29.6929 10.1893C29.7137 10.2158 29.7343 10.2425 29.7544 10.2696C29.7742 10.2961 29.7937 10.3228 29.8128 10.3499C29.8297 10.3739 29.8467 10.3979 29.8631 10.4223C29.8825 10.4511 29.9011 10.4804 29.9198 10.5097C29.9376 10.5376 29.9554 10.5656 29.9726 10.5939C29.9829 10.6111 29.9928 10.6286 30.0029 10.6459C30.0252 10.6841 30.0466 10.7227 30.0676 10.7616C30.081 10.7864 30.0939 10.8114 30.1068 10.8364C30.1222 10.8665 30.1377 10.8965 30.1523 10.927C30.167 10.9574 30.1808 10.9882 30.1947 11.0191C30.2074 11.0474 30.2209 11.0754 30.233 11.1041C30.2728 11.1983 30.3083 11.2946 30.3409 11.3923C30.3496 11.4184 30.3583 11.4446 30.3665 11.471C30.3772 11.5054 30.3871 11.5401 30.3968 11.5749C30.4044 11.6019 30.4122 11.6288 30.4192 11.656C30.4285 11.692 30.4365 11.7283 30.4448 11.7647C30.4516 11.7945 30.4586 11.8243 30.4648 11.8544C30.4843 11.9506 30.4994 12.048 30.5119 12.1465C30.5163 12.1816 30.522 12.2166 30.5255 12.252C30.5386 12.3833 30.5455 12.5165 30.5455 12.6512V17.3128C30.0336 16.9838 29.486 16.7051 28.9091 16.483V15.0698C28.9091 15.0698 15.8127 14.1383 7.63636 15.0698V24.7442C7.63637 26.0799 8.73531 27.1628 10.0909 27.1628H16.9783C17.1398 27.7251 17.3556 28.2643 17.6207 28.7752H10.0909C7.90204 28.7752 6.11498 27.0813 6.00559 24.9512L6 24.7442V12.6512C6 12.5817 6.00207 12.5127 6.00559 12.4441C6.10808 10.4484 7.68326 8.83536 9.68182 8.63984V10.031C9.68182 11.3668 10.7808 12.4496 12.1364 12.4496H12.9545C14.3102 12.4496 15.4091 11.3668 15.4091 10.031V8.63984L21.1364 8.64063Z" fill="white"/>
<path d="M12.9545 6C13.6323 6 14.1818 6.54142 14.1818 7.2093V10.031C14.1818 10.6989 13.6323 11.2403 12.9545 11.2403H12.1364C11.4586 11.2403 10.9091 10.6989 10.9091 10.031V7.2093C10.9091 6.54142 11.4586 6 12.1364 6H12.9545Z" fill="white"/>
<path d="M24.4091 6C25.0869 6 25.6364 6.54142 25.6364 7.2093V10.031C25.6364 10.6989 25.0869 11.2403 24.4091 11.2403H23.5909C22.9131 11.2403 22.3636 10.6989 22.3636 10.031V7.2093C22.3636 6.54142 22.9131 6 23.5909 6H24.4091Z" fill="white"/>
</svg>
